<svg width="33" height="32" viewBox="0 0 33 32" fill="none" xmlns="http://www.w3.org/2000/svg">
<path fill-rule="evenodd" clip-rule="evenodd" d="M6.93307 0L7.20605 0.0648312C7.49978 0.134506 7.79705 0.205018 8.09785 0.279061C7.8759 0.43338 7.65743 0.587205 7.44087 0.739684L7.44086 0.73969C6.89973 1.12069 6.37053 1.49329 5.82896 1.84423C5.69205 1.9307 5.52947 1.97437 5.36535 2.01846C5.25312 2.0486 5.14018 2.07894 5.03425 2.12329C3.94834 2.59648 3.25675 3.40939 2.94129 4.5499C2.93568 4.57235 2.93071 4.59545 2.92572 4.61868L2.92572 4.61868C2.90914 4.69586 2.89226 4.77441 2.85029 4.83503C2.48785 5.36574 2.11927 5.89339 1.74674 6.4267C1.5955 6.64322 1.4436 6.86068 1.29119 7.07965C1.04246 6.3638 0.951467 5.62368 1.0364 4.86536C1.30333 2.33562 3.32348 0.333659 5.76223 0.0485323C5.79649 0.0442495 5.82773 0.030896 5.86022 0.01701L5.86022 0.0170095C5.87375 0.0112264 5.88749 0.00535098 5.90176 0H6.93307ZM17.9396 0.0677029C17.7631 0.0456812 17.5865 0.0236596 17.41 0H15.5961C15.5764 0.00454972 15.5567 0.00947857 15.5369 0.0144074L15.5369 0.014408C15.4778 0.0291952 15.4186 0.0439824 15.3595 0.0485323C13.6184 0.169863 11.9562 0.588454 10.3607 1.27397C8.84403 1.92309 7.46086 2.79667 6.24149 3.88258C7.96438 5.61155 9.68121 7.32837 11.3859 9.03307C14.8014 6.66106 18.2229 6.66712 21.6202 9.03307L26.7585 3.89472C26.7646 3.89472 26.7524 3.87652 26.7403 3.86438C24.5564 1.95949 22.0327 0.740117 19.1753 0.242661C18.7634 0.17047 18.3515 0.119086 17.9396 0.0677029ZM31.9312 16.955C31.9536 16.773 31.976 16.5912 32 16.41C32 15.8033 32 15.1967 31.9939 14.59L31.9393 14.2988C31.8921 14.0134 31.8512 13.7261 31.8104 13.4386L31.8104 13.4385L31.8103 13.4385L31.8103 13.4385L31.8103 13.4385L31.8103 13.4384L31.8103 13.4384C31.7252 12.8397 31.6399 12.2398 31.4965 11.6538C30.902 9.23934 29.7493 7.09785 28.1174 5.24756L22.9609 10.4041C25.2297 13.2675 25.4117 17.4777 22.9609 20.608C24.6838 22.3249 26.4006 24.0417 28.1235 25.7646C30.0223 23.5867 31.2477 21.063 31.7573 18.1996C31.829 17.7863 31.8802 17.3701 31.9312 16.955ZM31.9352 6.20603L32 5.93307C32 5.59335 32 5.24755 32.0061 4.90783C31.97 4.7673 31.9381 4.62559 31.9062 4.48418L31.9062 4.48416L31.9062 4.48414L31.9062 4.48413L31.9062 4.48411C31.8363 4.17378 31.7667 3.8649 31.6542 3.57319C30.8837 1.58943 29.4278 0.424658 27.3348 0.0606654C27.2884 0.053517 27.244 0.0400511 27.1993 0.0264713C27.1681 0.0170019 27.1367 0.007477 27.1043 0H26.073L25.8 0.0648333C25.5063 0.134508 25.209 0.205019 24.9082 0.279061C25.1457 0.444208 25.3798 0.607652 25.6118 0.769567C26.1381 1.13701 26.6531 1.49657 27.171 1.85029C27.2247 1.88608 27.2916 1.90207 27.357 1.91773C27.3804 1.92331 27.4035 1.92885 27.4258 1.93523C28.8029 2.31742 29.6765 3.19706 30.0648 4.57417L30.0677 4.58584C30.091 4.67944 30.1155 4.77752 30.1679 4.85323C30.5186 5.36873 30.8752 5.88129 31.2397 6.40526L31.2397 6.40527L31.2398 6.40529C31.3986 6.63358 31.5589 6.86404 31.7209 7.09785C31.795 6.79705 31.8655 6.49977 31.9352 6.20603ZM31.8955 26.5307L31.8955 26.5308L31.8955 26.5309L31.8955 26.5309L31.8955 26.5309C31.817 26.8657 31.7382 27.2022 31.6239 27.5239C30.6896 30.0718 27.8444 31.5217 25.2237 30.8119C25.1206 30.7816 25.0174 30.7452 24.9264 30.7088C25.1546 30.55 25.3801 30.3906 25.6044 30.232C26.1256 29.8636 26.6409 29.4993 27.171 29.1558C27.3079 29.0693 27.4705 29.0256 27.6347 28.9816L27.6347 28.9815C27.7469 28.9514 27.8598 28.9211 27.9658 28.8767C29.0517 28.4096 29.7433 27.5906 30.0587 26.4501C30.0643 26.4277 30.0693 26.4046 30.0742 26.3814L30.0743 26.3814L30.0743 26.3814L30.0743 26.3813C30.0909 26.3041 30.1077 26.2256 30.1497 26.165C30.5035 25.647 30.8631 25.1319 31.2306 24.6055L31.2313 24.6045L31.2344 24.6L31.2377 24.5953C31.3972 24.3668 31.5583 24.1361 31.7209 23.9022C31.795 24.203 31.8655 24.5003 31.9352 24.7941L32 25.0669V26.0982C31.9634 26.2412 31.9295 26.3858 31.8955 26.5307ZM4.90684 25.7524L10.0513 20.608C7.75811 17.6658 7.59431 13.5648 10.0513 10.392C8.3285 8.67528 6.6118 6.95858 4.89511 5.24189L4.8947 5.24149C-0.462048 11.2292 -0.128388 20.2562 4.90684 25.7524ZM26.7949 27.0689C21.056 32.274 12.0229 32.3286 6.24756 27.1053L11.4041 21.9487C12.8783 23.0953 14.583 23.7262 16.4879 23.7323C18.3988 23.7384 20.1035 23.1074 21.6566 21.9002L21.6656 21.9093L21.6674 21.9111C23.3746 23.6243 25.0878 25.3436 26.7949 27.0689ZM2.61976 29.4288C4.28199 31.0667 6.66007 31.3155 8.06144 30.6845C7.87153 30.5555 7.68219 30.4247 7.49238 30.2937C7.05766 29.9935 6.62052 29.6916 6.16868 29.4045C5.92602 29.2468 5.64696 29.1133 5.3679 29.0162C4.19099 28.6098 3.40841 27.8211 2.98982 26.6563C2.88668 26.3591 2.74715 26.0679 2.57729 25.801C2.2679 25.3278 1.94827 24.8648 1.62865 24.4019C1.5221 24.2476 1.41555 24.0932 1.30939 23.9385C0.660266 25.4491 0.987859 27.8151 2.61976 29.4288Z" fill="#4A96F8"/>
</svg>
