<svg width="35" height="36" viewBox="0 0 35 36" fill="none" xmlns="http://www.w3.org/2000/svg">
<path d="M0 20.3209C0 18.7713 0 17.2287 0 15.6791C0.178102 15.172 0.541155 14.9184 1.04806 14.7916C2.19887 14.5169 3.34283 14.207 4.49364 13.9253C4.69914 13.876 4.82244 13.7844 4.89779 13.566C5.07589 13.0589 5.2677 12.5588 5.4869 12.0728C5.57595 11.8756 5.56225 11.7347 5.45265 11.5586C4.86354 10.5654 4.28814 9.5723 3.71273 8.57914C3.32228 7.90295 3.37023 7.47329 3.91138 6.91685C4.76764 6.03639 5.61705 5.16298 6.47331 4.28253C7.03501 3.70495 7.42547 3.65564 8.11732 4.07826C9.04893 4.6488 9.97369 5.21229 10.8984 5.79691C11.0765 5.90961 11.2135 5.90961 11.3985 5.81804C11.9876 5.54334 12.5836 5.28272 13.1864 5.0362C13.385 4.95167 13.4946 4.85306 13.5426 4.62767C13.8234 3.40912 14.118 2.19761 14.4125 0.979065C14.5906 0.274702 14.9331 0 15.6592 0C16.8922 0 18.1184 0 19.3514 0C20.0775 0 20.42 0.274702 20.5913 0.986108C20.8858 2.19761 21.1804 3.41616 21.4612 4.63471C21.5092 4.83193 21.5914 4.95167 21.7832 5.02915C22.3586 5.25455 22.9135 5.52221 23.4889 5.7476C23.6259 5.79691 23.8314 5.79691 23.9478 5.72647C24.8657 5.18411 25.7699 4.61358 26.681 4.05713C27.3112 3.66973 27.7222 3.71904 28.2359 4.25435C29.1059 5.14889 29.9759 6.04344 30.8458 6.93798C31.3801 7.48738 31.4281 7.90295 31.0376 8.5721C30.5033 9.48777 29.9759 10.4034 29.4347 11.3121C29.3183 11.5023 29.3046 11.6502 29.3936 11.8615C29.6471 12.425 29.8731 12.9955 30.0923 13.5731C30.1677 13.7844 30.2773 13.883 30.4965 13.9323C31.6884 14.2211 32.8871 14.531 34.079 14.8339C34.7161 14.9959 34.997 15.3622 34.997 16.0383C35.0038 17.3414 34.997 18.6374 34.997 19.9405C34.997 20.6378 34.723 20.9971 34.0585 21.1661C32.8666 21.469 31.6747 21.7789 30.4759 22.0677C30.2773 22.117 30.1745 22.2086 30.0992 22.4058C29.8868 22.9763 29.6608 23.5328 29.4142 24.0892C29.332 24.2794 29.3251 24.4203 29.4347 24.6034C29.9759 25.512 30.5033 26.4277 31.0376 27.3434C31.4144 27.9914 31.3664 28.414 30.8527 28.9493C29.9827 29.8439 29.1128 30.7384 28.2428 31.6329C27.7153 32.1683 27.2906 32.2246 26.6536 31.8302C25.7768 31.2878 24.9 30.7455 24.0095 30.2172C23.8999 30.1538 23.7081 30.1397 23.5848 30.189C22.9683 30.4355 22.3654 30.6961 21.7626 30.9849C21.6325 31.0483 21.4955 31.2033 21.4612 31.3442C21.1598 32.5345 20.8721 33.7249 20.605 34.9223C20.4885 35.4436 20.2419 35.8169 19.7419 36C18.2349 36 16.7347 36 15.2277 36C14.7345 35.8169 14.481 35.4436 14.3646 34.9223C14.0974 33.746 13.8029 32.5838 13.5357 31.4076C13.4809 31.161 13.3782 31.0342 13.1453 30.9427C12.5904 30.7314 12.0493 30.4919 11.5081 30.2383C11.3026 30.1397 11.145 30.1397 10.9464 30.2665C10.1038 30.8018 9.25443 31.323 8.39817 31.8443C7.77482 32.2246 7.34326 32.1753 6.83636 31.647C5.9664 30.7525 5.09644 29.858 4.22649 28.9634C3.69903 28.4211 3.64423 27.9914 4.02784 27.3293C4.53474 26.4559 5.04164 25.5754 5.56225 24.7161C5.6787 24.5189 5.67185 24.371 5.5828 24.1737C5.3362 23.6103 5.10329 23.0397 4.88409 22.4621C4.80189 22.2438 4.69914 22.1311 4.46624 22.0747C3.31543 21.8 2.17147 21.4831 1.01381 21.2154C0.541155 21.0816 0.178102 20.828 0 20.3209ZM24.6876 18.0387C24.715 13.9887 21.5023 10.65 17.543 10.6218C13.6042 10.5866 10.3573 13.8971 10.3299 17.9613C10.2956 22.0043 13.5083 25.343 17.4745 25.3782C21.3996 25.4134 24.6534 22.1029 24.6876 18.0387Z" fill="#7C75FE"/>
</svg>
