<svg width="31" height="31" viewBox="0 0 31 31" fill="none" xmlns="http://www.w3.org/2000/svg">
<path d="M28.8868 25.3637H23.955C20.8472 25.3637 18.3188 22.8352 18.3188 19.7274C18.3188 16.6196 20.8472 14.0912 23.955 14.0912H28.8868C29.2762 14.0912 29.5914 13.7761 29.5914 13.3866V11.273C29.5914 9.79561 28.4454 8.5941 26.9975 8.47758L22.9513 1.41023C22.5763 0.756599 21.9708 0.289427 21.2463 0.095438C20.5253 -0.09723 19.7712 0.00395872 19.1259 0.379585L5.25514 8.45486H2.81901C1.26479 8.45486 0.000854492 9.71873 0.000854492 11.273V28.1818C0.000854492 29.7361 1.26472 31 2.81901 31H26.7732C28.3274 31 29.5914 29.7361 29.5914 28.1818V26.0682C29.5914 25.6788 29.2762 25.3637 28.8868 25.3637ZM23.825 5.7735L25.3602 8.45486H19.2194L23.825 5.7735ZM8.05566 8.45486L19.8352 1.59735C20.1537 1.41089 20.5259 1.36135 20.8817 1.45633C21.2415 1.55263 21.5415 1.7852 21.728 2.11062L21.7294 2.1132L10.8371 8.45486H8.05566Z" fill="#32CBF9"/>
<path d="M28.8861 15.5002H23.9544C21.6233 15.5002 19.7272 17.3964 19.7272 19.7274C19.7272 22.0585 21.6233 23.9546 23.9544 23.9546H28.8861C30.0517 23.9546 30.9997 23.0065 30.9997 21.841V17.6138C30.9997 16.4483 30.0517 15.5002 28.8861 15.5002ZM23.9544 21.1365C23.1776 21.1365 22.5453 20.5042 22.5453 19.7274C22.5453 18.9507 23.1776 18.3184 23.9544 18.3184C24.7311 18.3184 25.3634 18.9507 25.3634 19.7274C25.3635 20.5042 24.7312 21.1365 23.9544 21.1365Z" fill="#32CBF9"/>
</svg>
