<svg width="112" height="112" viewBox="0 0 112 112" fill="none" xmlns="http://www.w3.org/2000/svg">
<circle cx="56" cy="56" r="56" fill="#E2F3FC"/>
<mask id="mask0_22_54" style="mask-type:alpha" maskUnits="userSpaceOnUse" x="0" y="0" width="112" height="112">
<circle cx="56" cy="56" r="56" fill="white"/>
</mask>
<g mask="url(#mask0_22_54)">
<path fill-rule="evenodd" clip-rule="evenodd" d="M17 3L-6 12.6936V109H17V3Z" fill="#D6EDF7"/>
<path fill-rule="evenodd" clip-rule="evenodd" d="M43 109H69V34H43V109Z" fill="#D6EDF7"/>
<path fill-rule="evenodd" clip-rule="evenodd" d="M69 108H89V18H69V108Z" fill="#E2F3FC"/>
<path fill-rule="evenodd" clip-rule="evenodd" d="M88 108H113V28H88V108Z" fill="#D6EDF7"/>
<path fill-rule="evenodd" clip-rule="evenodd" d="M45 72H47V34H45V72Z" fill="#A6DEF3"/>
<path fill-rule="evenodd" clip-rule="evenodd" d="M50 72H52V34H50V72Z" fill="#A6DEF3"/>
<path fill-rule="evenodd" clip-rule="evenodd" d="M55 72H57V34H55V72Z" fill="#A6DEF3"/>
<path fill-rule="evenodd" clip-rule="evenodd" d="M60 72H62V34H60V72Z" fill="#A6DEF3"/>
<path fill-rule="evenodd" clip-rule="evenodd" d="M65 72H67V34H65V72Z" fill="#A6DEF3"/>
<path fill-rule="evenodd" clip-rule="evenodd" d="M75 22.958L75.0066 21L89 21.042L88.9934 23L75 22.958Z" fill="#A6DEF3"/>
<path fill-rule="evenodd" clip-rule="evenodd" d="M75 27.958L75.0066 26L89 26.0423L88.9934 28L75 27.958Z" fill="#A6DEF3"/>
<path fill-rule="evenodd" clip-rule="evenodd" d="M75 32.958L75.007 31L89 31.042L88.9934 33L75 32.958Z" fill="#A6DEF3"/>
<path fill-rule="evenodd" clip-rule="evenodd" d="M75 37.958L75.0066 36L89 36.042L88.993 38L75 37.958Z" fill="#A6DEF3"/>
<path fill-rule="evenodd" clip-rule="evenodd" d="M75 43.958L75.0066 42L89 42.0423L88.9934 44L75 43.958Z" fill="#A6DEF3"/>
<path fill-rule="evenodd" clip-rule="evenodd" d="M93 37H96V32H93V37Z" fill="#A6DEF3"/>
<path fill-rule="evenodd" clip-rule="evenodd" d="M100 37H103V32H100V37Z" fill="#A6DEF3"/>
<path fill-rule="evenodd" clip-rule="evenodd" d="M106 37H109V32H106V37Z" fill="#A6DEF3"/>
<path fill-rule="evenodd" clip-rule="evenodd" d="M93 46H96V41H93V46Z" fill="#A6DEF3"/>
<path fill-rule="evenodd" clip-rule="evenodd" d="M100 46H103V41H100V46Z" fill="#A6DEF3"/>
<path fill-rule="evenodd" clip-rule="evenodd" d="M106 46H109V41H106V46Z" fill="#A6DEF3"/>
<path fill-rule="evenodd" clip-rule="evenodd" d="M93 54H96V49H93V54Z" fill="#A6DEF3"/>
<path fill-rule="evenodd" clip-rule="evenodd" d="M100 54H103V49H100V54Z" fill="#A6DEF3"/>
<path fill-rule="evenodd" clip-rule="evenodd" d="M106 54H109V49H106V54Z" fill="#A6DEF3"/>
<path fill-rule="evenodd" clip-rule="evenodd" d="M93 62H96V57H93V62Z" fill="#A6DEF3"/>
<path fill-rule="evenodd" clip-rule="evenodd" d="M100 62H103V57H100V62Z" fill="#A6DEF3"/>
<path fill-rule="evenodd" clip-rule="evenodd" d="M106 62H109V57H106V62Z" fill="#A6DEF3"/>
<path fill-rule="evenodd" clip-rule="evenodd" d="M-2 19H1V15H-2V19Z" fill="#A6DEF3"/>
<path fill-rule="evenodd" clip-rule="evenodd" d="M4 19H7V15H4V19Z" fill="#A6DEF3"/>
<path fill-rule="evenodd" clip-rule="evenodd" d="M11 19H14V15H11V19Z" fill="#A6DEF3"/>
<path fill-rule="evenodd" clip-rule="evenodd" d="M-2 27H1V23H-2V27Z" fill="#A6DEF3"/>
<path fill-rule="evenodd" clip-rule="evenodd" d="M4 27H7V23H4V27Z" fill="#A6DEF3"/>
<path fill-rule="evenodd" clip-rule="evenodd" d="M11 27H14V23H11V27Z" fill="#A6DEF3"/>
<path fill-rule="evenodd" clip-rule="evenodd" d="M-2 34H1V30H-2V34Z" fill="#A6DEF3"/>
<path fill-rule="evenodd" clip-rule="evenodd" d="M4 34H7V30H4V34Z" fill="#A6DEF3"/>
<path fill-rule="evenodd" clip-rule="evenodd" d="M11 34H14V30H11V34Z" fill="#A6DEF3"/>
<path fill-rule="evenodd" clip-rule="evenodd" d="M-2 42H1V38H-2V42Z" fill="#A6DEF3"/>
<path fill-rule="evenodd" clip-rule="evenodd" d="M4 42H7V38H4V42Z" fill="#A6DEF3"/>
<path fill-rule="evenodd" clip-rule="evenodd" d="M11 42H14V38H11V42Z" fill="#A6DEF3"/>
<mask id="mask1_22_54" style="mask-type:alpha" maskUnits="userSpaceOnUse" x="-54" y="78" width="79" height="37">
<path fill-rule="evenodd" clip-rule="evenodd" d="M-54 78.4711H24.6977V114.2H-54V78.4711Z" fill="white"/>
</mask>
<g mask="url(#mask1_22_54)">
<path fill-rule="evenodd" clip-rule="evenodd" d="M-48.0742 114.2C-50.563 113.742 -52.5584 111.701 -53.4105 109.345C-54.2627 106.99 -54.1051 104.376 -53.483 101.951C-53.2243 100.941 -52.8525 99.8984 -52.0479 99.2264C-50.4763 97.9133 -47.9868 98.6147 -46.4308 99.9458C-44.8752 101.277 -43.8275 103.116 -42.2582 104.432C-43.6517 99.1445 -42.6259 93.2826 -39.5166 88.7646C-38.1599 86.7935 -36.263 84.9866 -33.8831 84.5975C-29.9852 83.9601 -26.4539 87.4522 -25.3854 91.2108C-24.3168 94.9693 -24.9608 98.9615 -25.0519 102.864C-24.4882 97.5874 -22.9973 92.4081 -20.6669 87.6275C-19.366 84.9598 -17.7498 82.3523 -15.3722 80.5495C-12.9946 78.7466 -9.72576 77.8722 -6.92503 78.9259C-3.21005 80.3235 -1.38751 84.6405 -1.44774 88.5684C-1.50835 92.496 -3.0011 96.2416 -3.98376 100.048C-2.59585 97.8498 -1.12763 95.5719 1.11318 94.2268C3.35436 92.8821 6.60756 92.8024 8.32637 94.7584C10.2311 96.9257 9.42131 100.24 8.50781 102.964C11.783 101.345 13.4211 97.2887 16.8732 96.0792C20.1788 94.9208 24.2466 97.4217 24.656 100.864C24.9995 103.756 23.1565 106.411 21.4043 108.752C19.697 111.032 17.7573 111.539 16.05 113.82" fill="#A4DDF3"/>
</g>
<path fill-rule="evenodd" clip-rule="evenodd" d="M23.9344 114.373C19.4033 111.543 16.1286 108.433 14.2514 103.471C13.1843 100.652 12.7683 97.1648 14.7734 94.8998C16.7539 92.6619 20.438 92.6057 23.0744 94.0375C25.7108 95.4692 27.5018 98.0308 29.0209 100.597C28.9845 96.9091 29.627 93.2468 30.4315 89.6455C31.0669 86.8018 31.8473 83.8916 33.6487 81.5862C35.4504 79.2811 38.524 77.7141 41.3686 78.4772C44.6423 79.3557 46.4499 82.8717 47.0355 86.1743C47.6207 89.4765 47.4047 92.9375 48.5335 96.099C49.3128 93.9537 50.1244 91.7526 51.6487 90.042C53.1731 88.3317 55.5961 87.2019 57.8109 87.8386C60.345 88.5668 61.7846 91.3789 61.7645 93.9868C61.7448 96.5946 60.6001 99.0492 59.4784 101.41C61.3295 100.776 62.9959 99.6936 64.837 99.0312C66.6778 98.368 68.8729 98.1847 70.4854 99.2851C72.0978 100.385 72.5429 103.1 70.9412 104.216C72.4893 103.579 74.0773 102.933 75.7526 102.858C77.4279 102.783 79.2363 103.393 80.1394 104.79C80.7116 105.676 80.8599 106.772 80.8012 107.822C80.6707 110.148 79.5497 112.405 77.767 113.93" fill="#A4DDF3"/>
<path fill-rule="evenodd" clip-rule="evenodd" d="M114.883 113.627C118.08 113.478 120.61 109.818 119.467 106.864C118.323 103.909 113.794 102.918 111.583 105.205C113.258 101.976 114.939 98.0736 113.177 94.8901C111.825 92.4487 108.688 91.3256 105.909 91.7734C103.129 92.2213 100.716 93.9856 98.8976 96.1106C99.3549 93.8165 99.3445 91.4317 98.866 89.1413C98.5002 87.3885 97.6328 85.4673 95.892 84.9728C94.1019 84.4636 92.3076 85.7098 90.9951 87.0159C87.4385 90.5551 84.9609 95.1403 83.9638 100.03C83.7515 101.072 83.3284 102.389 82.2539 102.444C81.7386 102.47 81.2746 102.166 80.8221 101.921C77.7957 100.284 73.5873 101.287 71.6484 104.107C71.0599 104.963 70.6632 105.987 70.7464 107.018C70.9082 109.023 72.7411 110.448 74.4726 111.504C77.6403 113.438 80.399 112.86 83.9106 114.082L114.883 113.627Z" fill="#A4DDF3"/>
<path fill-rule="evenodd" clip-rule="evenodd" d="M66 85.5V45.5H73.5V33C73.5 30.2396 74.0208 27.6484 75.0625 25.2266C76.1042 22.8047 77.5364 20.6823 79.3594 18.8594C81.1823 17.0364 83.3047 15.6042 85.7266 14.5625C88.1485 13.5208 90.7396 13 93.5 13H96C98.7604 13 101.352 13.5208 103.773 14.5625C106.195 15.6042 108.318 17.0364 110.141 18.8594C111.964 20.6823 113.396 22.8047 114.438 25.2266C115.479 27.6484 116 30.2396 116 33V45.5H123.5V85.5H66ZM92.875 64.9531L91 78H98.5L96.625 64.9531C97.5625 64.5885 98.3177 63.9896 98.8906 63.1562C99.4635 62.3229 99.75 61.3854 99.75 60.3438C99.75 58.9375 99.2552 57.7526 98.2656 56.7891C97.276 55.8255 96.1042 55.3438 94.75 55.3438C93.3437 55.3438 92.1589 55.8255 91.1953 56.7891C90.2318 57.7526 89.75 58.9375 89.75 60.3438C89.75 61.3854 90.0365 62.3229 90.6094 63.1562C91.1823 63.9896 91.9375 64.5885 92.875 64.9531ZM108.5 34.25C108.5 30.4479 107.159 27.2057 104.477 24.5234C101.794 21.8411 98.5521 20.5 94.75 20.5C90.9479 20.5 87.7057 21.8411 85.0234 24.5234C82.3411 27.2057 81 30.4479 81 34.25V45.5H108.5V34.25Z" fill="#A4DDF3"/>
</g>
<path fill-rule="evenodd" clip-rule="evenodd" d="M56.988 47.339L87.8093 33L97.6567 36.6539L92.2763 42.6017L89.3093 43.9821L86.4795 41.8942L85.4899 45.759L81.9804 47.3917C80.576 46.4572 77.8267 44.8029 77.8267 44.8029L77.4746 49.4879L73.2787 51.44L73.0351 51.5533L72.8848 53.9512L62.3453 58.8544L63.4569 61.2438L57.4122 64.056C57.2482 71.1429 53.1839 77.8645 46.32 81.0578C36.6994 85.5336 25.2663 81.366 20.7941 71.7532C16.322 62.1404 20.4988 50.7106 30.1194 46.2349C36.9833 43.0416 44.7427 44.2624 50.2691 48.702L56.3138 45.8898L56.988 47.339L62.3402 58.8434L56.988 47.339ZM27.4478 62.1449C25.9422 62.8454 24.8724 64.095 24.3634 65.542C23.9033 66.8485 23.9001 68.3172 24.4502 69.6909C24.4906 69.7917 24.534 69.892 24.5804 69.9917C25.2735 71.4816 26.5059 72.544 27.9356 73.0576C29.3485 73.5658 30.9558 73.5385 32.4295 72.8529C35.3854 71.4777 36.6762 67.9706 35.297 65.006L35.2945 65.0008C33.9136 62.0399 30.402 60.7706 27.4478 62.1449Z" fill="url(#paint0_linear_22_54)"/>
<defs>
<linearGradient id="paint0_linear_22_54" x1="31.3115" y1="40.9082" x2="45.5657" y2="97.2133" gradientUnits="userSpaceOnUse">
<stop stop-color="#2DD1F9"/>
<stop offset="0.862311" stop-color="#A74BF4"/>
</linearGradient>
</defs>
</svg>
