<svg width="180" height="317" viewBox="0 0 180 317" fill="none" xmlns="http://www.w3.org/2000/svg">
<path opacity="0.1" fill-rule="evenodd" clip-rule="evenodd" d="M1.58394 158.5C13.5465 70.5924 94.6256 0 182.351 0C268.746 0 329.888 70.5924 317.926 158.5C309.951 217.105 270.076 269.05 219.567 295.689C194.313 309.008 166.401 317 137.159 317C97.2839 317 62.7256 301.017 38.8006 277.042C9.55895 249.071 -5.06188 206.45 1.58394 158.5ZM142.476 297.021C219.567 297.021 290.013 234.42 300.646 158.5C305.963 121.206 295.33 86.5756 274.063 59.937C251.467 33.2983 218.238 18.647 181.021 18.647C103.93 18.647 33.484 81.2479 21.5214 157.168C16.2048 195.794 26.8381 230.424 49.4339 257.063C73.359 282.37 105.259 297.021 142.476 297.021ZM37.4722 158.5C46.7764 89.2395 110.576 33.2983 179.693 33.2983C212.922 33.2983 240.835 46.6177 262.101 69.2605C282.039 91.9034 291.343 123.87 286.026 157.168C276.722 226.429 212.922 282.37 143.806 282.37C110.576 282.37 81.3347 269.05 61.3972 246.408C41.4597 222.433 32.1556 191.798 37.4722 158.5ZM90.6389 150.508L145.135 231.756L235.518 166.492L181.022 85.2437L90.6389 150.508Z" fill="#2CD1F8"/>
</svg>
